<svg width="111" height="111" viewBox="0 0 111 111" fill="none" xmlns="http://www.w3.org/2000/svg">
<g opacity="0.8" filter="url(#filter0_f_630_292)">
<path d="M53.5452 1.06804L54.8479 29.3731L51.6482 11.8966L53.8984 29.6611L51.6313 20.0344L50.2101 11.2534L51.1406 17.9365L48.1291 5.09498L52.2404 28.392L48.1291 14.4001L50.2778 25.9384L42.8167 3.97808L49.4657 27.7997L43.7642 13.6556L46.9788 24.822L39.0099 7.59896L46.5386 29.5766L41.1584 20.4064L39.3143 16.8534L40.0419 18.4945L33.5959 7.51435L45.1175 32.8417L44.593 32.1141L34.8478 17.107L38.5196 23.658L34.4591 18.0057L39.9759 27.6643L28.7743 12.1532L40.853 31.4217L33.5116 22.2341L40.9559 33.1812L23.4112 13.2847L37.9273 32.0984L29.3493 23.2839L38.9083 34.7551L22.6998 19.6976L40.2954 38.782L33.5278 33.7064L17.8608 21.7446L38.0956 39.8139L21.2954 29.5782L23.5625 31.287L22.7335 30.7794L28.3506 34.9414L30.9561 36.9209L13.6648 27.5308L30.4818 39.0356L22.0901 34.4337L32.2414 40.237L33.4087 41.0322L9.2487 30.8132L27.9103 41.0663L18.7064 37.1242L29.8561 42.1322L33.9842 44.3993L22.6657 40.8125L11.0765 36.4982L19.5868 39.8312L16.406 38.8161L23.5796 41.9291L18.2671 40.3726L33.089 47.0914L31.9553 46.8694L7.47371 40.3888L26.9977 45.9214L15.3408 43.6881L24.2063 46.7166L7.5246 44.3832L16.0181 46.8026L15.6797 46.7519L16.0689 46.8196L26.7615 49.8818L19.4017 49.5773L15.5274 49.1205L18.2344 49.5265L4.56398 48.9513L27.946 53.2317L26.2541 53.3163L13.3791 53.0625L22.2954 53.5193L13.9546 53.9423L24.3598 54.8729L5.78321 55.4312L31.1955 55.4819L31.7031 55.5326L16.8481 57.529L34.5113 56.7L18.0814 58.8169L15.7296 59.1039L3.86963 60.6252L31.1936 58.0197L15.5948 61.6742L27.8949 59.8977L19.4187 62.3509L14.2754 63.5014L17.693 62.8415L8.86162 65.3963L33.3763 60.6266L16.9312 65.8727L28.9433 62.4024L8.08255 70.675L33.1056 63.2307L16.5252 70.3555L34.4423 63.2307L18.471 71.3517L20.8227 70.4043L10.4343 75.4968L27.3195 67.7986L34.4422 64.9224L21.4486 73.0099L37.7242 64.381L10.7559 81.0123L36.9121 65.8531L21.9558 77.307L32.5809 70.2688L23.1231 78.288L21.4312 79.5569L22.5817 78.7448L17.2015 83.296L39.5343 66.8677L25.0833 80.9279L28.67 78.0517L18.5697 88.4401L35.9113 72.8916L40.0564 69.2033L26.5381 85.1746L33.9147 77.9848L31.6137 80.9794L28.3484 85.023L29.3467 83.9402L23.0188 92.2302L39.9376 73.9411L39.3793 74.8378L31.935 85.4119L35.5386 80.994L25.5227 97.1516L41.5617 76.0202L34.1174 89.1492L40.8681 79.0656L32.1039 96.4413L44.2346 76.2232L45.8588 73.6008L38.499 90.7735L41.3244 85.3086L35.4026 100.603L47.5164 75.0728L41.4766 94.0555L46.0616 82.6183L45.4525 84.9362L42.9654 93.6495L43.6253 91.8561L41.0028 101.753L47.8548 81.7893L44.8771 94.208L48.6331 84.1411L45.1985 105.222L50.308 83.7692L48.4639 96.9826L50.8494 88.0159L49.3267 104.766L51.4078 94.9871L51.2893 96.662L51.78 93.2106L53.9964 82.7886L54.1656 107.524L57.1094 81.4015L58.7675 97.8634L59.0382 84.2439L61.3053 104.411L59.1566 79.4731L62.0666 94.6659L61.0515 79.8282L66.5841 105.934L61.8299 80.2175L66.381 95.7319L64.926 87.0018L70.2216 102.263L65.5181 80.8439L69.1388 88.711L71.0168 93.5836L69.9171 90.386L75.6354 102.805L67.7174 78.3062L68.9186 80.3873L75.5844 93.6852L71.7269 85.2426L75.872 92.3994L72.522 84.5826L80.8461 99.3358L69.409 77.2228L77.8516 90.5207L66.4313 70.1672L86.3955 98.6753L72.2513 76.833L82.3858 89.8098L73.0467 76.4101L88.5957 94.4172L78.2062 80.9958L84.3295 88.2235L71.9801 72.5391L84.094 84.45L80.9132 80.3725L93.9404 92.7739L74.5853 72.2342L73.6717 71.0499L88.256 82.8763L82.9604 77.276L90.0154 82.8589L86.2087 79.509L95.0401 85.9549L80.1894 71.7269L99.7984 83.3335L80.9847 68.5294L90.9671 73.2498L94.8754 75.3477L92.5406 73.9942L94.0802 74.7217L83.1677 67.6667L102.354 76.7861L80.1565 65.3322L95.2989 71.1355L74.6239 62.1515L72.5428 60.798L86.315 65.7721L95.6542 69.1897L94.5206 68.7329L106.465 73.0472L82.2205 63.3864L98.5643 67.8868L81.1377 62.253L106.228 67.8359L97.6169 65.5181L84.1154 61.5421L95.9077 63.4709L82.3726 60.0026L109.595 63.3525L82.711 58.8351L98.4284 59.8503L87.634 58.1753L105.602 58.4291L98.0061 57.6495L100.544 57.7171L94.3346 57.2603L81.0367 55.873L91.3569 55.027L97.583 54.7563L95.3836 54.6887L107.988 53.6397L79.1919 53.4536L99.2914 50.6281L91.8304 51.1188L98.4961 49.9344L90.0535 50.662L106.093 47.5997L83.0321 50.2729L97.887 46.8046L87.4142 48.1919L107.412 42.3209L83.6926 47.4304L98.8009 42.3209L86.6703 45.1633L105.027 37.9221L90.7985 42.0164L95.5696 40.1892L82.0513 44.2666L105.315 32.3725L90.9341 38.0572L95.7221 35.6717L80.1059 42.0841L80.292 41.9656L101.034 30.3423L91.7286 34.7243L94.7063 32.8294L81.1036 39.7155L76.0956 42.0672L91.8807 31.3577L88.4293 33.3034L91.0518 31.4931L89.9689 32.136L100.391 24.878L75.6554 39.5976L90.9835 26.8747L87.5829 29.2433L90.1376 27.0946L77.9393 35.9768L94.9935 20.3271L78.0915 33.4052L85.4004 26.1471L73.3542 37.0937L85.3836 23.8126L84.6223 24.5232L93.0985 15.0822L76.8564 30.3936L83.7214 22.0993L72.287 34.7032L83.4507 19.6847L79.3902 24.3029L86.2064 15.1478L69.9806 34.9576L69.2193 35.8205L78.9645 19.2569L75.1964 24.6222L77.8709 20.2585L75.283 24.0808L83.4527 10.5782L67.7521 34.0615L76.3301 15.5862L72.9463 21.5584L75.2811 16.7365L68.833 28.5932L77.2085 7.97126L67.0572 28.1049L71.2192 16.4139L66.5665 26.9376L73.3508 4.02986L64.8406 25.9902L67.9875 13.4194L63.8085 26.0237L66.5493 12.1671L64.959 17.7501L67.3107 5.92369L63.081 21.1506L64.4853 13.2494L62.455 23.4516L59.9342 32.5368L61.1015 20.5924L61.7783 14.1633L61.7106 14.5693L62.8611 2.89562L60.0018 19.1712L60.6617 10.8131L59.5789 21.6243L57.8024 31.6911V30.6083L58.5977 3.31846L57.8992 17.0376L57.9331 12.0296L56.8164 25.6664L55.7844 13.4513L56.3089 31.8926L56.0044 35.6992L55.9029 35.1578L54.4844 12.7059L54.7226 18.6126L53.5369 1.0658L53.5452 1.06804Z" fill="#FFDD55"/>
</g>
<g opacity="0.94" filter="url(#filter1_f_630_292)">
<path d="M92.292 56.5911C92.292 76.2649 76.3433 92.2137 56.6695 92.2137C36.9956 92.2137 21.0469 76.2649 21.0469 56.5911C21.0469 36.9173 36.9956 20.9686 56.6695 20.9686C76.3433 20.9686 92.292 36.9173 92.292 56.5911Z" fill="#FFDD55"/>
</g>
<path d="M87.3403 55.577C87.3403 72.6075 73.5343 86.4134 56.5039 86.4134C39.4734 86.4134 25.6675 72.6075 25.6675 55.577C25.6675 38.5465 39.4734 24.7406 56.5039 24.7406C73.5343 24.7406 87.3403 38.5465 87.3403 55.577Z" fill="url(#paint0_radial_630_292)"/>
<g filter="url(#filter2_f_630_292)">
<path d="M85.3093 55.5784C85.3093 71.2465 72.6078 83.9479 56.9398 83.9479C41.2718 83.9479 28.5703 71.2465 28.5703 55.5784C28.5703 39.9104 41.2718 27.209 56.9398 27.209C72.6078 27.209 85.3093 39.9104 85.3093 55.5784Z" fill="url(#paint1_linear_630_292)"/>
</g>
<path d="M85.3093 55.5784C85.3093 71.2465 72.6078 83.9479 56.9398 83.9479C41.2718 83.9479 28.5703 71.2465 28.5703 55.5784C28.5703 39.9104 41.2718 27.209 56.9398 27.209C72.6078 27.209 85.3093 39.9104 85.3093 55.5784Z" fill="url(#paint2_linear_630_292)"/>
<defs>
<filter id="filter0_f_630_292" x="2.80874" y="0.00490296" width="107.847" height="108.58" filterUnits="userSpaceOnUse" color-interpolation-filters="sRGB">
<feFlood flood-opacity="0" result="BackgroundImageFix"/>
<feBlend mode="normal" in="SourceGraphic" in2="BackgroundImageFix" result="shape"/>
<feGaussianBlur stdDeviation="0.530446" result="effect1_foregroundBlur_630_292"/>
</filter>
<filter id="filter1_f_630_292" x="16.7722" y="16.6939" width="79.7945" height="79.7946" filterUnits="userSpaceOnUse" color-interpolation-filters="sRGB">
<feFlood flood-opacity="0" result="BackgroundImageFix"/>
<feBlend mode="normal" in="SourceGraphic" in2="BackgroundImageFix" result="shape"/>
<feGaussianBlur stdDeviation="2.13735" result="effect1_foregroundBlur_630_292"/>
</filter>
<filter id="filter2_f_630_292" x="26.3008" y="24.9394" width="61.2779" height="61.2781" filterUnits="userSpaceOnUse" color-interpolation-filters="sRGB">
<feFlood flood-opacity="0" result="BackgroundImageFix"/>
<feBlend mode="normal" in="SourceGraphic" in2="BackgroundImageFix" result="shape"/>
<feGaussianBlur stdDeviation="1.13478" result="effect1_foregroundBlur_630_292"/>
</filter>
<radialGradient id="paint0_radial_630_292" cx="0" cy="0" r="1" gradientUnits="userSpaceOnUse" gradientTransform="translate(44.7269 70.4071) rotate(-2.20872) scale(30.8367 45.2617)">
<stop stop-color="#FFFF00"/>
<stop offset="1" stop-color="#FEA917"/>
</radialGradient>
<linearGradient id="paint1_linear_630_292" x1="16.9065" y1="94.3904" x2="84.3275" y2="28.1057" gradientUnits="userSpaceOnUse">
<stop stop-color="#FFFF00"/>
<stop offset="1" stop-color="#FFFF00" stop-opacity="0"/>
</linearGradient>
<linearGradient id="paint2_linear_630_292" x1="61.714" y1="-5.47197" x2="51.2947" y2="53.8366" gradientUnits="userSpaceOnUse">
<stop stop-color="white"/>
<stop offset="1" stop-color="white" stop-opacity="0"/>
</linearGradient>
</defs>
</svg>
